<?xml version="1.0" encoding="UTF-8" standalone="no"?>
<!-- Created with Inkscape (http://www.inkscape.org/) -->

<svg
   xmlns:dc="http://purl.org/dc/elements/1.1/"
   xmlns:cc="http://creativecommons.org/ns#"
   xmlns:rdf="http://www.w3.org/1999/02/22-rdf-syntax-ns#"
   xmlns:svg="http://www.w3.org/2000/svg"
   xmlns="http://www.w3.org/2000/svg"
   xmlns:sodipodi="http://sodipodi.sourceforge.net/DTD/sodipodi-0.dtd"
   xmlns:inkscape="http://www.inkscape.org/namespaces/inkscape"
   width="4.1199408mm"
   height="4.3844481mm"
   viewBox="0 0 4.1199406 4.3844479"
   version="1.1"
   id="svg8"
   inkscape:version="0.92.4 (5da689c313, 2019-01-14)"
   sodipodi:docname="instagram.svg">
  <defs
     id="defs2" />
  <sodipodi:namedview
     id="base"
     pagecolor="#ffffff"
     bordercolor="#666666"
     borderopacity="1.0"
     inkscape:pageopacity="0.0"
     inkscape:pageshadow="2"
     inkscape:zoom="0.35"
     inkscape:cx="380.57141"
     inkscape:cy="-747.42859"
     inkscape:document-units="mm"
     inkscape:current-layer="layer1"
     showgrid="false"
     inkscape:window-width="1366"
     inkscape:window-height="706"
     inkscape:window-x="-8"
     inkscape:window-y="-8"
     inkscape:window-maximized="1" />
  <metadata
     id="metadata5">
    <rdf:RDF>
      <cc:Work
         rdf:about="">
        <dc:format>image/svg+xml</dc:format>
        <dc:type
           rdf:resource="http://purl.org/dc/dcmitype/StillImage" />
        <dc:title />
      </cc:Work>
    </rdf:RDF>
  </metadata>
  <g
     inkscape:label="Capa 1"
     inkscape:groupmode="layer"
     id="layer1"
     transform="translate(-1.3607203,57.088024)">
    <g
       id="g64"
       transform="matrix(0.57671959,0,0,0.53703274,0.57596625,-90.979304)">
      <path
         style="fill:#f5f5f6;stroke-width:0.00861171"
         d="m 1.3607203,67.190511 v -4.082105 h 3.5718751 3.5718751 v 4.082105 4.082105 H 4.9325954 1.3607203 Z"
         id="path80"
         inkscape:connector-curvature="0" />
      <path
         style="fill:#f29b51;stroke-width:0.00861171"
         d="m 1.3607203,67.190511 v -4.082105 h 3.5718751 3.5718751 v 4.082105 4.082105 H 4.9325954 1.3607203 Z m 4.6486443,3.012961 C 6.5785309,70.036438 7.0327841,69.74139 7.3229623,69.35026 7.5122402,69.095134 7.5916375,68.762673 7.5810652,68.269505 7.5736717,67.924615 7.5357748,67.633277 7.4432915,67.21035 7.3936764,66.98346 7.295117,66.616656 7.2870641,66.628926 c -0.00184,0.0028 -0.0082,0.04779 -0.014133,0.09996 -0.1012422,0.890218 -0.452706,1.914773 -0.9585378,2.794241 -0.1028242,0.178776 -0.2396034,0.391374 -0.3420127,0.531595 -0.048134,0.06591 -0.098505,0.135253 -0.1119344,0.154103 l -0.024417,0.03427 0.040786,-0.0063 c 0.022432,-0.0035 0.08208,-0.01847 0.1325501,-0.03328 z M 3.7745265,69.980219 c 0,-0.0034 -0.044736,-0.07644 -0.099412,-0.162395 -0.380752,-0.598578 -0.7836421,-1.43676 -1.0343578,-2.1519 -0.026193,-0.07471 -0.050183,-0.131938 -0.053312,-0.12717 -0.016199,0.02468 -0.083772,0.367538 -0.1072488,0.544163 -0.043023,0.323679 -0.033622,0.579769 0.027078,0.737597 0.03255,0.08463 0.1746788,0.272558 0.3527458,0.466401 0.2328231,0.25345 0.52271,0.484293 0.8133511,0.647689 0.093417,0.05252 0.1011566,0.05601 0.1011566,0.04562 z M 5.2647781,69.641001 C 5.5080612,69.599582 5.7218377,69.493354 5.8778866,69.336342 6.1468196,69.065748 6.4208709,68.30936 6.5609912,67.450958 6.7082919,66.548568 6.6775359,65.725005 6.4790774,65.257527 6.439589,65.16451 6.3585953,65.033618 6.3034724,64.973735 6.1647293,64.823011 5.7672594,64.612082 5.4453548,64.518351 4.777536,64.323897 4.1273905,64.498915 3.6175732,65.010385 3.3718459,65.256909 3.162569,65.601858 3.0483897,65.948566 c -0.1184019,0.359529 -0.146163,0.639697 -0.1075999,1.085907 0.07228,0.836353 0.3173036,1.497824 0.7269,1.962358 0.3087021,0.350108 0.6816464,0.567321 1.1044503,0.643262 0.1105087,0.01985 0.3784826,0.02034 0.492638,9.08e-4 z M 4.2845814,68.098561 C 4.168471,68.050979 4.0730569,67.90354 4.0470253,67.731477 c -0.011503,-0.07603 -0.00959,-1.542751 0.0021,-1.609329 0.0331,-0.188538 0.1377922,-0.333712 0.2648541,-0.36727 0.034965,-0.0092 0.1730882,-0.0111 0.5197357,-0.007 0.4461243,0.0053 0.4745145,0.0067 0.5157039,0.02669 0.081815,0.03965 0.1563378,0.134538 0.1935568,0.246458 0.037073,0.111481 0.038171,0.137421 0.038245,0.903738 4.18e-5,0.445055 -0.00265,0.732524 -0.00728,0.776025 -0.020408,0.191815 -0.1166193,0.346378 -0.248093,0.39856 -0.058761,0.02332 -0.9841412,0.02264 -1.0412617,-7.73e-4 z m 1.042176,-0.214955 c 0.045617,-0.03199 0.078048,-0.07996 0.098455,-0.145625 l 0.016518,-0.05315 6.98e-5,-0.756208 6.98e-5,-0.756208 -0.019535,-0.05698 c -0.022476,-0.06555 -0.072174,-0.128609 -0.1158172,-0.146948 -0.020335,-0.0085 -0.1686523,-0.01112 -0.5134487,-0.0089 l -0.4848541,0.0031 -0.029464,0.02399 c -0.037571,0.03059 -0.072346,0.08358 -0.089575,0.136494 -0.01299,0.03989 -0.013511,0.07126 -0.013511,0.812205 v 0.77071 l 0.019048,0.04937 c 0.021466,0.05564 0.052982,0.09986 0.089085,0.124982 0.028358,0.01973 0.2799541,0.02935 0.7394897,0.02826 0.2651157,-6.3e-4 0.2690393,-9.54e-4 0.3034699,-0.0251 z M 4.7372585,67.540255 C 4.5958365,67.509735 4.4585805,67.314472 4.420034,67.088966 4.406452,67.009506 4.406323,66.851373 4.419778,66.772662 4.456559,66.557485 4.5789134,66.374253 4.714929,66.33066 c 0.1645299,-0.05273 0.3345978,0.05085 0.4262252,0.259604 0.08225,0.187387 0.091997,0.405474 0.027304,0.610878 -0.076004,0.241314 -0.2500667,0.378204 -0.4311997,0.339113 z M 4.884239,67.322193 c 0.049038,-0.02219 0.1073423,-0.08155 0.1338088,-0.136245 0.087626,-0.181075 0.075214,-0.403904 -0.030831,-0.553509 -0.053693,-0.07575 -0.1025176,-0.104647 -0.1772531,-0.104912 -0.050504,-1.78e-4 -0.061901,0.0038 -0.1097397,0.03843 -0.063037,0.04562 -0.1071441,0.109879 -0.1352265,0.197021 -0.017509,0.05433 -0.019587,0.07208 -0.019587,0.167309 0,0.09895 0.00163,0.111579 0.022929,0.177501 0.057113,0.17678 0.1938872,0.26961 0.3158999,0.214404 z m 0.308563,-0.907277 c -0.045843,-0.04259 -0.05839,-0.143812 -0.02665,-0.214988 0.022391,-0.05021 0.05452,-0.06754 0.094678,-0.05106 0.036242,0.01487 0.05889,0.04844 0.06967,0.103265 0.00724,0.03684 0.00646,0.04856 -0.00614,0.09197 -0.011466,0.0395 -0.020613,0.05402 -0.044392,0.07046 -0.038023,0.0263 -0.059149,0.02638 -0.087166,3.5e-4 z m 0.8176346,-2.39907 C 5.8811873,63.854438 5.7387566,63.713268 5.5988338,63.607886 5.282959,63.369987 5.0524617,63.348848 4.7546993,63.530468 c -0.077044,0.04699 -0.1800349,0.1262 -0.2354068,0.181042 l -0.029693,0.02941 0.2581238,0.0067 c 0.141968,0.0037 0.2942262,0.01218 0.3383514,0.01893 0.365095,0.05585 0.5661767,0.116339 0.9208741,0.277023 0.025816,0.01169 0.027068,0.0018 0.00349,-0.02769 z"
         id="path78"
         inkscape:connector-curvature="0" />
      <path
         style="fill:#ea624a;stroke-width:0.00861171"
         d="m 1.3607203,67.190511 v -4.082105 h 3.5718751 3.5718751 v 4.082105 4.082105 H 4.9325954 1.3607203 Z m 4.6486443,3.012961 C 6.5785309,70.036438 7.0327841,69.74139 7.3229623,69.35026 7.5122402,69.095134 7.5916375,68.762673 7.5810652,68.269505 7.5736717,67.924615 7.5357748,67.633277 7.4432915,67.21035 7.3936764,66.98346 7.295117,66.616656 7.2870641,66.628926 c -0.00184,0.0028 -0.0082,0.04779 -0.014133,0.09996 -0.1012422,0.890218 -0.452706,1.914773 -0.9585378,2.794241 -0.1028242,0.178776 -0.2396034,0.391374 -0.3420127,0.531595 -0.048134,0.06591 -0.098505,0.135253 -0.1119344,0.154103 l -0.024417,0.03427 0.040786,-0.0063 c 0.022432,-0.0035 0.08208,-0.01847 0.1325501,-0.03328 z M 3.6921965,69.829528 C 3.476734,69.4831 3.2621959,69.08295 3.1099997,68.743632 l -0.050546,-0.112691 -0.00349,-0.388012 c -0.00192,-0.213407 -0.00294,-0.389642 -0.00227,-0.391633 6.676e-4,-0.002 0.020213,0.05408 0.043434,0.124609 0.1897174,0.576195 0.4663602,0.997958 0.8502623,1.296289 0.1254113,0.09746 0.2285051,0.163425 0.3426774,0.219273 0.567112,0.277405 1.2214841,0.213475 1.587822,-0.155125 C 6.0524023,69.160751 6.2406253,68.758595 6.3821813,68.258875 6.6464506,67.325953 6.7268305,66.257418 6.5823151,65.598386 6.5341371,65.37868 6.4812516,65.237226 6.3963952,65.101103 6.3099852,64.962489 6.2462854,64.903595 6.0643153,64.794083 5.5468626,64.482671 5.0099973,64.370833 4.534948,64.47549 3.9414952,64.606231 3.4117959,65.075483 3.108169,65.73945 3.089453,65.78038 3.069267,65.82375 3.06331,65.83584 3.05349,65.85576 3.052656,65.7869 3.05436,65.099679 3.05579,64.523086 3.0542708,64.34154 3.04802,64.34154 c -0.014709,0 -0.166138,0.126027 -0.2316516,0.192792 -0.1977146,0.201492 -0.3549109,0.453888 -0.4435454,0.71216 -0.072295,0.21066 -0.098161,0.376996 -0.098145,0.631153 2.8e-5,0.403567 0.087874,0.88866 0.2587338,1.428697 0.03033,0.09587 0.055146,0.182271 0.055146,0.192013 0,0.0097 -0.00964,0.06047 -0.021429,0.112722 -0.1276896,0.566129 -0.1481611,0.979812 -0.05985,1.209435 0.048622,0.126425 0.3199126,0.452474 0.5591572,0.672019 0.1214289,0.111431 0.3092209,0.257588 0.4360199,0.339351 0.1043525,0.06729 0.2580982,0.153605 0.2744402,0.154075 0.00848,2.44e-4 -0.020212,-0.05275 -0.084694,-0.156431 z m 0.8671659,-1.724931 c -0.1825771,-0.0049 -0.2351868,-0.0095 -0.2542269,-0.02216 -0.023981,-0.01594 -0.024009,-0.01604 -0.024433,-0.08985 l -4.248e-4,-0.07389 0.4883585,-0.0035 c 0.2685972,-0.002 0.5019702,-0.008 0.5186069,-0.01354 0.064471,-0.02129 0.1140485,-0.08107 0.1401235,-0.168948 0.013842,-0.04665 0.014198,-0.06657 0.014347,-0.804045 l 1.53e-4,-0.756208 -0.019535,-0.05698 c -0.02173,-0.06338 -0.07079,-0.12709 -0.111938,-0.145357 -0.023024,-0.01022 -0.8085625,-0.03189 -0.9707854,-0.02678 l -0.059299,0.0019 -2.79e-5,-0.07311 c -2.79e-5,-0.06703 0.00137,-0.07408 0.016845,-0.08482 0.033793,-0.02346 0.1729878,-0.03127 0.5866368,-0.03292 0.4064111,-0.0016 0.4236842,-8.84e-4 0.4656563,0.01984 0.082251,0.04062 0.1564335,0.135226 0.1935569,0.246859 0.037073,0.111481 0.038171,0.137421 0.038245,0.903738 4.19e-5,0.445055 -0.00265,0.732524 -0.00728,0.776025 -0.020424,0.191965 -0.1164869,0.346184 -0.2483714,0.398733 -0.043433,0.01731 -0.2593236,0.01874 -0.7662024,0.0051 z m 0.1587193,-0.579401 c -0.053203,-0.01761 -0.1046582,-0.05907 -0.1494341,-0.120403 l -0.033702,-0.04616 3.663e-4,-0.139869 c 3.53e-4,-0.134885 7.88e-4,-0.138932 0.012209,-0.113569 0.051152,0.1136 0.09757,0.172771 0.1680863,0.214265 0.1253701,0.07377 0.2791255,-0.02761 0.3368244,-0.222088 0.047759,-0.160976 0.022477,-0.341218 -0.065214,-0.464929 -0.056354,-0.0795 -0.1020882,-0.105383 -0.1871711,-0.105917 -0.063605,-4e-4 -0.06827,0.0012 -0.1157794,0.03991 -0.054854,0.04468 -0.099207,0.105353 -0.1294073,0.177028 l -0.019914,0.04726 V 66.65005 66.509376 l 0.033138,-0.04917 c 0.065703,-0.09749 0.1827347,-0.153005 0.2867866,-0.136047 0.190188,0.031 0.3393428,0.268274 0.3547079,0.564274 0.014848,0.286036 -0.1145591,0.562732 -0.2979636,0.637101 -0.047112,0.0191 -0.1352759,0.01895 -0.193532,-3.3e-4 z m 0.4758086,-1.126173 c -0.015359,-0.0234 -0.017124,-0.03496 -0.017124,-0.112103 0,-0.07715 0.00176,-0.0887 0.017124,-0.112103 0.012878,-0.01962 0.024553,-0.02608 0.04709,-0.02605 0.042252,5.3e-5 0.071032,0.03001 0.085922,0.08942 0.011636,0.04643 0.011636,0.05105 0,0.09747 -0.01489,0.05941 -0.043671,0.08936 -0.085922,0.08942 -0.022537,3.2e-5 -0.034212,-0.0064 -0.04709,-0.02605 z M 6.0104366,64.015846 C 5.8811873,63.854438 5.7387566,63.713268 5.5988338,63.607886 5.4364892,63.485617 5.3034906,63.425445 5.162212,63.410345 c -0.1711031,-0.01829 -0.3910665,0.07895 -0.6074153,0.268527 -0.0935,0.08193 -0.09402,0.08146 0.081546,0.0729 0.2550017,-0.01243 0.5531951,0.01891 0.8090116,0.08504 0.1815259,0.04693 0.3273183,0.100591 0.5615937,0.206722 0.025816,0.01169 0.027068,0.0018 0.00349,-0.02769 z"
         id="path76"
         inkscape:connector-curvature="0" />
      <path
         style="fill:#934a96;stroke-width:0.00861171"
         d="m 1.3607203,67.190511 v -4.082105 h 3.5718751 3.5718751 v 4.082105 4.082105 H 4.9325954 1.3607203 Z m 4.6486443,3.012961 C 6.5785309,70.036438 7.0327841,69.74139 7.3229623,69.35026 7.5122402,69.095134 7.5916375,68.762673 7.5810652,68.269505 7.5736717,67.924615 7.5357748,67.633277 7.4432915,67.21035 7.3936764,66.98346 7.295117,66.616656 7.2870641,66.628926 c -0.00184,0.0028 -0.0082,0.04779 -0.014133,0.09996 -0.1012422,0.890218 -0.452706,1.914773 -0.9585378,2.794241 -0.1028242,0.178776 -0.2396034,0.391374 -0.3420127,0.531595 -0.048134,0.06591 -0.098505,0.135253 -0.1119344,0.154103 l -0.024417,0.03427 0.040786,-0.0063 c 0.022432,-0.0035 0.08208,-0.01847 0.1325501,-0.03328 z M 3.7736469,69.935997 c -0.016992,-0.02786 -0.04118,-0.07031 -0.053751,-0.09433 l -0.022855,-0.04367 -0.00137,-0.361895 c -0.00136,-0.35887 -0.00125,-0.361802 0.012582,-0.350672 0.00767,0.0062 0.043573,0.03721 0.079776,0.06897 0.086363,0.07576 0.2533854,0.202883 0.3300056,0.251162 0.1086679,0.06847 0.2939086,0.15652 0.3592692,0.170766 0.0106,0.0023 0.064794,0.01622 0.1204299,0.03092 0.157274,0.04154 0.2558595,0.05389 0.4220673,0.0529 0.356684,-0.0021 0.6474489,-0.111858 0.8580872,-0.323797 0.268933,-0.270594 0.5429843,-1.026982 0.6831046,-1.885384 0.1473007,-0.90239 0.1165447,-1.725953 -0.081914,-2.193431 C 6.439589,65.16451 6.3585953,65.033618 6.3034724,64.973735 6.1638434,64.822048 5.7637125,64.610216 5.4418667,64.517593 5.1605208,64.436626 4.8368651,64.415905 4.5907558,64.463102 c -0.047962,0.0092 -0.1029007,0.01946 -0.1220856,0.02281 -0.077808,0.01358 -0.247086,0.07812 -0.3601394,0.13732 -0.080178,0.04198 -0.2041721,0.120757 -0.3095872,0.196678 -0.042207,0.0304 -0.085365,0.05924 -0.095906,0.06409 -0.01727,0.008 -0.018478,0.0069 -0.012209,-0.01099 0.0043,-0.01225 0.00696,-0.186407 0.00696,-0.456361 v -0.436548 h -0.022825 c -0.027998,0 -0.1623814,0.05216 -0.2602757,0.101025 -0.4786434,0.238919 -0.8509878,0.641301 -1.0303207,1.11344 -0.042045,0.110694 -0.084062,0.274047 -0.1005044,0.390737 -0.017673,0.125424 -0.017498,0.469394 3.154e-4,0.621884 0.041782,0.357666 0.1211934,0.713183 0.2533879,1.134387 l 0.052417,0.167014 -0.022116,0.09875 c -0.1288267,0.575211 -0.1491852,0.98282 -0.060593,1.213173 0.032602,0.08477 0.1752469,0.273313 0.3527459,0.466244 0.2230267,0.242416 0.488806,0.458036 0.7621195,0.618285 0.098678,0.05786 0.173788,0.09362 0.1796046,0.08551 0.00154,-0.0021 -0.011104,-0.0267 -0.028096,-0.05456 z m 0.8694313,-1.831781 c -0.080576,-0.0038 -0.1512117,-0.0101 -0.1569672,-0.01397 -0.00785,-0.0053 -0.010472,-0.02549 -0.010496,-0.08088 l -2.79e-5,-0.07384 0.034913,-0.0066 c 0.019202,-0.0036 0.2028675,-0.0099 0.4081456,-0.01405 0.3679893,-0.0074 0.3737232,-0.0078 0.4081147,-0.03161 0.045482,-0.03148 0.077991,-0.07945 0.098455,-0.145301 l 0.016518,-0.05315 6.98e-5,-0.756208 6.97e-5,-0.756208 -0.019535,-0.05698 c -0.021807,-0.06361 -0.070592,-0.126803 -0.1127474,-0.146048 -0.015815,-0.0072 -0.081616,-0.01191 -0.1650206,-0.01176 -0.1747766,3.1e-4 -0.6203287,-0.0206 -0.6474027,-0.03039 -0.019779,-0.0071 -0.020359,-0.0092 -0.020899,-0.07555 -5.323e-4,-0.06531 2.393e-4,-0.06853 0.018166,-0.07583 0.025567,-0.01042 0.4157572,-0.02482 0.6335041,-0.02338 0.156491,0.001 0.1831409,0.0037 0.2214851,0.02219 0.081701,0.03939 0.1563126,0.134355 0.1935569,0.246351 0.037073,0.111481 0.038171,0.137421 0.038245,0.903738 4.18e-5,0.445055 -0.00265,0.732524 -0.00728,0.776025 -0.020424,0.191965 -0.1164869,0.346184 -0.2483714,0.398733 -0.03334,0.01328 -0.085277,0.01579 -0.2883245,0.01392 -0.1362127,-0.0013 -0.3135856,-0.0054 -0.394162,-0.0092 z m 0.07674,-0.58563 c -0.077212,-0.03231 -0.08333,-0.04271 -0.085742,-0.145804 -0.00236,-0.100823 -0.00239,-0.100789 0.058738,-0.05778 0.1010589,0.0711 0.2586368,0.0086 0.3252343,-0.129051 0.087623,-0.18107 0.07521,-0.403909 -0.030831,-0.553509 -0.052669,-0.0743 -0.100701,-0.10268 -0.1847875,-0.109169 -0.057932,-0.0045 -0.067609,-0.0023 -0.1037437,0.02287 -0.063299,0.04416 -0.066071,0.04198 -0.066071,-0.05193 0,-0.09379 0.00766,-0.111038 0.060203,-0.135531 0.074348,-0.03466 0.1088342,-0.04238 0.1569762,-0.03515 0.1208926,0.01815 0.2234709,0.112059 0.2913608,0.26673 0.1089957,0.248321 0.0881,0.567424 -0.05079,0.77565 -0.1038537,0.155698 -0.2345902,0.209564 -0.3705459,0.152672 z m 0.5057831,-1.100847 c -0.022436,-0.01222 -0.027905,-0.03905 -0.027905,-0.136864 0,-0.109893 0.00381,-0.12035 0.046817,-0.12835 0.037326,-0.0069 0.066884,0.02379 0.082391,0.08566 0.011636,0.04643 0.011636,0.05105 0,0.09747 -0.017522,0.06991 -0.06018,0.104477 -0.1013018,0.08208 z M 6.0104366,64.015846 C 5.8811873,63.854438 5.7387566,63.713268 5.5988338,63.607886 5.4364892,63.485617 5.3034906,63.425445 5.162212,63.410345 c -0.1711031,-0.01829 -0.3910665,0.07895 -0.6074153,0.268527 -0.0935,0.08193 -0.09402,0.08146 0.081546,0.0729 0.2550017,-0.01243 0.5531951,0.01891 0.8090116,0.08504 0.1815259,0.04693 0.3273183,0.100591 0.5615937,0.206722 0.025816,0.01169 0.027068,0.0018 0.00349,-0.02769 z"
         id="path74"
         inkscape:connector-curvature="0" />
      <path
         style="fill:#ad3d88;stroke-width:0.00861171"
         d="m 1.3607203,67.190511 v -4.082105 h 3.5718751 3.5718751 v 4.082105 4.082105 H 4.9325954 1.3607203 Z m 4.2450898,3.291341 c 0.026859,-0.02879 0.079679,-0.08827 0.1173779,-0.132174 l 0.068544,-0.07983 0.1163288,-0.02907 c 0.3974738,-0.09932 0.7266758,-0.254684 1.0248657,-0.483691 0.2428047,-0.186472 0.4311512,-0.409006 0.52467,-0.619905 0.1622897,-0.365988 0.1769209,-0.961266 0.041563,-1.690998 -0.054515,-0.293898 -0.1932567,-0.840375 -0.2133492,-0.840343 -0.00313,5e-6 -0.013043,0.06339 -0.022038,0.140854 -0.070672,0.60861 -0.2600076,1.281915 -0.5403195,1.92145 -0.1012682,0.231045 -0.1809286,0.38932 -0.2267162,0.450456 l -0.01492,0.01992 0.00842,-0.03587 c 0.00607,-0.02582 0.00894,-0.187697 0.01027,-0.578021 l 0.00184,-0.542155 -0.017234,0.03189 c -0.010809,0.02 -0.017288,0.02595 -0.01738,0.01595 -1.618e-4,-0.01767 0.014181,-0.08319 0.02257,-0.103116 0.00295,-0.007 0.011453,-0.04768 0.018885,-0.09036 0.00743,-0.04268 0.021741,-0.123047 0.031798,-0.178592 0.04634,-0.255944 0.088958,-0.585967 0.1091359,-0.845123 0.01422,-0.182636 0.01208,-0.723807 -0.00346,-0.874392 -0.023597,-0.228694 -0.057125,-0.4028 -0.1104816,-0.573714 -0.018658,-0.05977 -0.033923,-0.113345 -0.033923,-0.119065 0,-0.0057 -0.00392,-0.01422 -0.00872,-0.0189 -0.0048,-0.0047 -0.012934,-0.01991 -0.018085,-0.03385 -0.00893,-0.02418 -0.00853,-0.0251 0.00872,-0.02008 l 0.018085,0.0053 V 64.800776 64.42315 L 6.4760959,64.38753 C 6.4440999,64.343948 6.3021078,64.236212 6.1714897,64.156403 6.0983064,64.111686 6.0682632,64.087548 6.0494041,64.058312 6.035646,64.036983 5.9835778,63.97298 5.9336971,63.916083 5.6644706,63.608983 5.43074,63.448693 5.1896037,63.405793 5.0023602,63.372481 4.7718725,63.475231 4.5105281,63.70852 l -0.05581,0.04982 0.1674316,-0.0069 c 0.319322,-0.01316 0.6435774,0.03489 0.9426089,0.139683 0.060948,0.02136 0.1217565,0.04772 0.135129,0.05859 0.013373,0.01087 0.020625,0.01976 0.016116,0.01976 -0.00606,0 -0.00836,0.07513 -0.00881,0.288525 -3.391e-4,0.158689 -0.00228,0.292634 -0.00432,0.297654 -0.00204,0.005 0.00295,0.0091 0.011074,0.0091 0.00813,0 0.013096,0.0041 0.011043,0.0092 -0.00428,0.01056 -0.00579,0.01024 -0.1505691,-0.03202 -0.269333,-0.07858 -0.4053325,-0.09857 -0.6732195,-0.09893 -0.1608616,-2.18e-4 -0.2318893,0.0041 -0.306958,0.01873 -0.053718,0.01046 -0.1117956,0.02159 -0.1290619,0.02473 -0.041856,0.0076 -0.1416599,0.04089 -0.2232422,0.0744 -0.1304863,0.0536 -0.2753137,0.138288 -0.4429963,0.259054 -0.042207,0.0304 -0.085365,0.05924 -0.095906,0.06409 -0.01727,0.008 -0.018478,0.0069 -0.012209,-0.01099 0.0043,-0.01225 0.00696,-0.186407 0.00696,-0.456361 v -0.436548 h -0.022825 c -0.027998,0 -0.1623814,0.05216 -0.2602757,0.101025 -0.4786434,0.238919 -0.8509878,0.641301 -1.0303207,1.11344 -0.042045,0.110694 -0.084062,0.274047 -0.1005044,0.390737 -0.017673,0.125424 -0.017498,0.469394 3.154e-4,0.621884 0.042135,0.360692 0.1329954,0.763582 0.2631069,1.166663 l 0.040309,0.124876 -0.021015,0.08773 c -0.033058,0.138013 -0.073705,0.358481 -0.094245,0.511176 -0.016281,0.121041 -0.018895,0.166574 -0.019324,0.336638 -4.5e-4,0.17858 9.956e-4,0.203506 0.015723,0.271077 0.030194,0.138534 0.05257,0.180724 0.1860947,0.350885 0.2982531,0.380087 0.6254146,0.664897 1.0191238,0.887196 0.139497,0.07876 0.1506243,0.07759 0.097647,-0.01026 -0.015865,-0.02631 -0.039131,-0.06749 -0.051702,-0.09151 l -0.022855,-0.04367 -0.00137,-0.361895 c -0.00136,-0.35887 -0.00125,-0.361802 0.012582,-0.350672 0.00767,0.0062 0.043573,0.03721 0.079776,0.06897 0.086363,0.07576 0.2533853,0.202883 0.3300055,0.251162 0.1086679,0.06847 0.2939086,0.15652 0.3592692,0.170766 0.0106,0.0023 0.064794,0.0162 0.12043,0.03087 0.360657,0.09509 0.7422256,0.07014 1.03509,-0.0677 0.031923,-0.01502 0.054471,-0.01979 0.069431,-0.01467 0.012185,0.0042 0.01823,0.0097 0.013434,0.01219 -0.00676,0.0036 -0.00872,0.09273 -0.00872,0.397512 v 0.392905 l -0.024079,0.03965 c -0.013243,0.02181 -0.049542,0.06824 -0.080664,0.103184 -0.031122,0.03494 -0.063453,0.07218 -0.071846,0.08276 -0.014751,0.01859 -0.014561,0.0186 0.00567,2e-4 0.011511,-0.01047 0.042904,-0.04259 0.069763,-0.07138 z M 4.63959,68.103666 c -0.078658,-0.0035 -0.1477235,-0.0095 -0.153479,-0.01342 -0.00785,-0.0053 -0.010472,-0.02549 -0.010496,-0.08088 l -2.79e-5,-0.07384 0.036288,-0.0069 c 0.056094,-0.01068 0.5328899,-0.0092 0.5590424,0.0018 0.023194,0.0097 0.023211,0.0098 0.024417,0.08129 8.85e-4,0.0525 -0.00137,0.07309 -0.00846,0.07723 -0.015756,0.0092 -0.2098072,0.02725 -0.2589249,0.02408 -0.02494,-0.0016 -0.1097026,-0.0058 -0.1883606,-0.0093 z m 0.6924554,-0.03854 c -0.00657,-0.0035 -0.00679,-0.01 -9.039e-4,-0.02673 0.00436,-0.01241 0.00609,-0.04362 0.00394,-0.0712 -0.00378,-0.04857 -0.00341,-0.04965 0.033962,-0.09986 0.020778,-0.02791 0.046447,-0.07323 0.057043,-0.100691 l 0.019264,-0.04994 0.00204,-0.760079 c 0.00143,-0.5339 -2.679e-4,-0.772733 -0.00572,-0.802602 -0.010766,-0.05904 -0.039062,-0.118712 -0.080974,-0.170775 -0.02934,-0.03645 -0.034372,-0.04751 -0.028671,-0.06303 0.0038,-0.01035 0.00506,-0.04271 0.00279,-0.07191 l -0.00413,-0.05308 0.024343,0.006 c 0.060891,0.01506 0.1367352,0.101533 0.1755164,0.200121 0.044917,0.114185 0.044509,0.104905 0.042337,0.962126 l -0.00196,0.774467 -0.022219,0.07147 c -0.025274,0.0813 -0.074843,0.167562 -0.1188806,0.206888 -0.033963,0.03033 -0.084839,0.05571 -0.097783,0.04879 z M 4.7198177,67.5192 c -0.077421,-0.03337 -0.083333,-0.04347 -0.085742,-0.146418 -0.00235,-0.100218 -0.00211,-0.100472 0.055915,-0.05999 0.050777,0.03542 0.1010486,0.04111 0.1768035,0.02001 0.0954,-0.02657 0.086961,-0.03265 0.088912,0.06401 l 0.0017,0.08406 -0.038564,0.02693 c -0.052105,0.03639 -0.1306163,0.04088 -0.1990198,0.0114 z m 0.3626508,-0.347292 c 0.00641,-0.204751 0.0064,-0.271035 -5.58e-5,-0.478372 -0.00576,-0.184995 -0.00222,-0.195489 0.040317,-0.119758 0.091212,0.162376 0.1091812,0.419434 0.043191,0.617871 -0.018571,0.05585 -0.069356,0.147689 -0.081669,0.147689 -0.00464,0 -0.00524,-0.05689 -0.00178,-0.16743 z M 4.6326137,66.494215 c 0,-0.110327 0.00291,-0.113998 0.1298713,-0.164077 0.040274,-0.01589 0.077672,-0.01412 0.121754,0.0058 0.065514,0.02954 0.071463,0.04091 0.070855,0.135432 -2.874e-4,0.04474 -7.586e-4,0.08352 -0.00105,0.08616 -2.874e-4,0.0026 -0.015435,-0.0024 -0.033661,-0.01125 -0.018226,-0.0088 -0.066461,-0.01882 -0.1071897,-0.02219 -0.069664,-0.0058 -0.076432,-0.0045 -0.1142082,0.02188 -0.063632,0.04439 -0.066375,0.04225 -0.066375,-0.05172 z m 0.5929871,-0.07648 c -0.022436,-0.01222 -0.027905,-0.03905 -0.027905,-0.136864 0,-0.104287 0.00287,-0.114208 0.036755,-0.127168 0.034288,-0.01311 0.039984,0.0057 0.039984,0.132389 0,0.133657 -0.00759,0.154107 -0.048834,0.131643 z m 0.07674,-0.131705 c 0,-0.04659 0.00241,-0.06345 0.00862,-0.06029 0.014063,0.0071 0.022486,0.06861 0.013514,0.09861 -0.01343,0.04491 -0.02213,0.02985 -0.02213,-0.03832 z m -0.70112,-0.348685 c -0.061392,-0.0036 -0.1147605,-0.0097 -0.1185974,-0.01351 -0.00384,-0.0038 -0.00691,-0.037 -0.00683,-0.07371 1.416e-4,-0.06491 7.192e-4,-0.06699 0.020929,-0.07566 0.030858,-0.01324 0.5537939,-0.01548 0.5779654,-0.0025 0.019185,0.01032 0.020006,0.01353 0.020006,0.07835 0,0.05486 -0.00245,0.06972 -0.013029,0.0789 -0.015149,0.01316 -0.3096776,0.01813 -0.4804426,0.0081 z"
         id="path72"
         inkscape:connector-curvature="0" />
      <path
         style="fill:#d42f58;stroke-width:0.00861171"
         d="m 1.3607203,67.190511 v -4.082105 h 3.5718751 3.5718751 v 4.082105 4.082105 H 4.9325954 1.3607203 Z m 3.6158549,3.75897 c 0.2316571,-0.08891 0.4694356,-0.278352 0.7328237,-0.583841 l 0.08266,-0.09587 0.1161653,-0.02903 c 0.3973043,-0.09928 0.7265611,-0.254681 1.0247022,-0.483651 0.2428047,-0.186472 0.4311512,-0.409006 0.52467,-0.619905 0.1622897,-0.365988 0.1769209,-0.961266 0.041563,-1.690998 -0.054515,-0.293898 -0.1932567,-0.840375 -0.2133492,-0.840343 -0.00313,5e-6 -0.013043,0.06339 -0.022038,0.140854 -0.070672,0.60861 -0.2600076,1.281915 -0.5403195,1.92145 -0.1012682,0.231045 -0.1809286,0.38932 -0.2267162,0.450456 l -0.01492,0.01992 0.00842,-0.03587 c 0.00607,-0.02582 0.00894,-0.187697 0.01027,-0.578021 l 0.00184,-0.542155 -0.017234,0.03189 c -0.010809,0.02 -0.017288,0.02595 -0.01738,0.01595 -1.618e-4,-0.01767 0.014181,-0.08319 0.02257,-0.103116 0.00295,-0.007 0.011453,-0.04768 0.018885,-0.09036 0.00743,-0.04268 0.021741,-0.123047 0.031798,-0.178592 0.04634,-0.255944 0.088958,-0.585967 0.1091359,-0.845123 0.01422,-0.182636 0.01208,-0.723807 -0.00346,-0.874392 -0.023597,-0.228694 -0.057125,-0.4028 -0.1104816,-0.573714 -0.018658,-0.05977 -0.033923,-0.113345 -0.033923,-0.119065 0,-0.0057 -0.00392,-0.01422 -0.00872,-0.0189 -0.0048,-0.0047 -0.012934,-0.01991 -0.018085,-0.03385 -0.00893,-0.02418 -0.00853,-0.0251 0.00872,-0.02008 l 0.018085,0.0053 V 64.800776 64.42315 L 6.4760958,64.38753 C 6.4440999,64.343948 6.3021078,64.236212 6.1714897,64.156403 6.0983064,64.111686 6.0682632,64.087548 6.0494041,64.058312 6.0149269,64.004864 5.8574607,63.826506 5.7742057,63.746602 5.5107237,63.493724 5.2430724,63.368044 5.0477875,63.4055 4.8720398,63.439208 4.7304798,63.518117 4.5203428,63.69951 l -0.072602,0.06267 0.198825,0.0065 c 0.1093538,0.0036 0.2035341,0.0096 0.2092896,0.0134 0.00902,0.006 0.010194,0.0488 0.00851,0.309781 -0.00183,0.284197 -0.00119,0.3029 0.010465,0.303532 0.034127,0.0019 -0.021722,0.01847 -0.085251,0.02536 -0.098868,0.01073 -0.2605887,0.04422 -0.3645962,0.0755 -0.2204673,0.0663 -0.3913237,0.15464 -0.6260411,0.323685 -0.042207,0.0304 -0.085365,0.05924 -0.095906,0.06409 -0.01727,0.008 -0.018478,0.0069 -0.012209,-0.01099 0.0043,-0.01225 0.00696,-0.186407 0.00696,-0.456361 v -0.436548 h -0.022825 c -0.027998,0 -0.1623814,0.05216 -0.2602757,0.101025 -0.4786434,0.238919 -0.8509878,0.641301 -1.0303207,1.11344 -0.042045,0.110694 -0.084062,0.274047 -0.1005044,0.390737 -0.017673,0.125424 -0.017498,0.469394 3.154e-4,0.621884 0.041776,0.35762 0.1368728,0.780414 0.2599864,1.155887 0.020577,0.06276 0.037412,0.123947 0.037412,0.135981 0,0.01203 -0.01082,0.06925 -0.024044,0.127138 -0.032513,0.142332 -0.069749,0.35159 -0.088936,0.499796 -0.012847,0.09923 -0.015851,0.158279 -0.015954,0.313599 -1.144e-4,0.172143 0.0015,0.198817 0.016091,0.265762 0.030194,0.138534 0.05257,0.180724 0.1860947,0.350885 0.2393638,0.30504 0.5138202,0.562816 0.8092529,0.76007 0.082013,0.05476 0.3394248,0.203817 0.3428806,0.198551 0.00405,-0.0062 -0.017924,-0.05222 -0.062457,-0.130899 l -0.047463,-0.08385 -0.00137,-0.362953 c -0.00136,-0.359928 -0.00126,-0.36286 0.012581,-0.35173 0.00767,0.0062 0.043573,0.03721 0.079776,0.06897 0.086363,0.07576 0.2533853,0.202883 0.3300055,0.251162 0.1556856,0.0981 0.368927,0.187295 0.561667,0.23494 0.2010428,0.0497 0.2057715,0.05119 0.1940701,0.06117 -0.00974,0.0083 -0.010938,0.07686 -0.010938,0.624065 0,0.538544 -0.00132,0.616409 -0.010663,0.628223 -0.010713,0.01355 -0.095636,0.0092 -0.13584,-0.007 -0.00959,-0.0039 -0.015624,-0.0039 -0.013403,-1.79e-4 0.00762,0.01291 0.093658,0.03669 0.1365966,0.03776 0.027787,6.9e-4 0.076204,-0.01169 0.1370522,-0.03504 z M 4.5209926,68.098454 c -0.048224,-0.01379 -0.045344,-0.0082 -0.045372,-0.08798 l -2.79e-5,-0.0739 0.024443,-0.0062 c 0.033233,-0.0084 0.2682628,-0.0066 0.3057996,0.0024 l 0.030209,0.0072 0.00118,0.07165 c 9.001e-4,0.05443 -0.00128,0.07308 -0.00907,0.07763 -0.013162,0.0077 -0.284098,0.01582 -0.3071719,0.0092 z m 0.8110528,-0.03332 c -0.00657,-0.0035 -0.00679,-0.01 -9.039e-4,-0.02673 0.00436,-0.01241 0.00609,-0.04362 0.00394,-0.0712 -0.00378,-0.04857 -0.00341,-0.04965 0.033962,-0.09986 0.020778,-0.02791 0.046447,-0.07323 0.057043,-0.100691 l 0.019264,-0.04994 0.00204,-0.760079 c 0.00143,-0.5339 -2.679e-4,-0.772733 -0.00572,-0.802602 -0.010766,-0.05904 -0.039062,-0.118712 -0.080974,-0.170775 -0.02934,-0.03645 -0.034372,-0.04751 -0.028671,-0.06303 0.0038,-0.01035 0.00506,-0.04271 0.00279,-0.07191 l -0.00413,-0.05308 0.024343,0.006 c 0.060891,0.01506 0.1367352,0.101533 0.1755164,0.200121 0.044917,0.114185 0.044509,0.104905 0.042337,0.962126 l -0.00196,0.774467 -0.022219,0.07147 c -0.025274,0.0813 -0.074843,0.167562 -0.1188806,0.206888 -0.033963,0.03033 -0.084839,0.05571 -0.097783,0.04879 z m -0.6226922,-0.55133 c -0.021103,-0.0085 -0.046218,-0.02424 -0.05581,-0.03495 -0.015769,-0.0176 -0.017635,-0.02777 -0.019467,-0.106068 -0.0023,-0.0983 2.923e-4,-0.101935 0.046859,-0.06573 0.01476,0.01147 0.053092,0.03089 0.085182,0.04315 l 0.058345,0.02229 -0.0012,0.0707 c -9.781e-4,0.05755 -0.00357,0.07212 -0.013953,0.07835 -0.020075,0.01205 -0.058244,0.0091 -0.099955,-0.0077 z m 0.3731153,-0.341896 c 0.00641,-0.204751 0.0064,-0.271035 -5.58e-5,-0.478372 -0.00576,-0.184995 -0.00222,-0.195489 0.040317,-0.119758 0.091212,0.162376 0.1091812,0.419434 0.043191,0.617871 -0.018571,0.05585 -0.069356,0.147689 -0.081669,0.147689 -0.00464,0 -0.00524,-0.05689 -0.00178,-0.16743 z M 4.6326137,66.498831 c 0,-0.04131 0.00313,-0.08401 0.00695,-0.09489 0.010792,-0.03073 0.077696,-0.06386 0.1289404,-0.06386 0.02457,0 0.046177,0.0037 0.048015,0.0082 0.00184,0.0045 0.00417,0.0391 0.00518,0.07682 l 0.00184,0.06858 -0.053554,0.0186 c -0.029454,0.01023 -0.066007,0.02829 -0.081229,0.04012 -0.015221,0.01183 -0.034079,0.02151 -0.041906,0.02151 -0.012981,0 -0.014231,-0.0066 -0.014231,-0.07511 z m 0.5725301,-0.104262 c -0.0041,-0.01166 -0.00745,-0.06399 -0.00745,-0.116279 0,-0.100099 0.00687,-0.124619 0.032802,-0.11701 0.011206,0.0033 0.012544,0.0167 0.012544,0.125786 0,0.11741 -5.853e-4,0.122232 -0.015225,0.125407 -0.00961,0.0021 -0.017971,-0.0045 -0.022673,-0.0179 z m 0.097196,-0.108535 c 0,-0.04659 0.00241,-0.06345 0.00862,-0.06029 0.014063,0.0071 0.022486,0.06861 0.013514,0.09861 -0.01343,0.04491 -0.02213,0.02985 -0.02213,-0.03832 z m -0.8127411,-0.3599 c -0.011912,-0.0074 -0.013931,-0.01848 -0.013808,-0.07597 1.347e-4,-0.06253 0.00138,-0.06786 0.017441,-0.07468 0.022405,-0.0095 0.2732061,-0.01007 0.3126047,-6.98e-4 l 0.030209,0.0072 0.00118,0.0708 0.00118,0.0708 -0.024417,0.0062 c -0.036898,0.0093 -0.3084291,0.0063 -0.3243988,-0.0036 z m 0.203912,5.010515 c -0.00232,-0.0035 -0.00834,-0.0039 -0.013371,-8.39e-4 -0.00557,0.0034 -0.00391,0.0059 0.00421,0.0064 0.00735,4.61e-4 0.011474,-0.0021 0.00916,-0.0056 z"
         id="path70"
         inkscape:connector-curvature="0" />
      <path
         style="fill:#6d519c;stroke-width:0.00861171"
         d="m 1.3607203,67.190511 v -4.082105 h 3.5718751 3.5718751 v 4.082105 4.082105 H 4.9325954 1.3607203 Z m 3.6158549,3.75897 c 0.2316571,-0.08891 0.4694356,-0.278352 0.7328237,-0.583841 l 0.08266,-0.09587 0.1161653,-0.02903 c 0.3973043,-0.09928 0.7265611,-0.254681 1.0247022,-0.483651 0.2428047,-0.186472 0.4311512,-0.409006 0.52467,-0.619905 0.1622897,-0.365988 0.1769209,-0.961266 0.041563,-1.690998 -0.054515,-0.293898 -0.1932567,-0.840375 -0.2133492,-0.840343 -0.00313,5e-6 -0.013043,0.06339 -0.022038,0.140854 -0.070672,0.60861 -0.2600076,1.281915 -0.5403195,1.92145 -0.1012682,0.231045 -0.1809286,0.38932 -0.2267162,0.450456 l -0.01492,0.01992 0.00842,-0.03587 c 0.00607,-0.02582 0.00894,-0.187697 0.01027,-0.578021 l 0.00184,-0.542155 -0.017234,0.03189 c -0.010809,0.02 -0.017288,0.02595 -0.01738,0.01595 -1.618e-4,-0.01767 0.014181,-0.08319 0.02257,-0.103116 0.00295,-0.007 0.011453,-0.04768 0.018885,-0.09036 0.00743,-0.04268 0.021741,-0.123047 0.031798,-0.178592 0.04634,-0.255944 0.088958,-0.585967 0.1091359,-0.845123 0.01422,-0.182636 0.01208,-0.723807 -0.00346,-0.874392 -0.023597,-0.228694 -0.057125,-0.4028 -0.1104816,-0.573714 -0.018658,-0.05977 -0.033923,-0.113345 -0.033923,-0.119065 0,-0.0057 -0.00392,-0.01422 -0.00872,-0.0189 -0.0048,-0.0047 -0.012934,-0.01991 -0.018085,-0.03385 -0.00893,-0.02418 -0.00853,-0.0251 0.00872,-0.02008 l 0.018085,0.0053 V 64.800776 64.42315 L 6.4760958,64.38753 C 6.4440999,64.343948 6.3021078,64.236212 6.1714897,64.156403 6.0983064,64.111686 6.0682632,64.087548 6.0494041,64.058312 5.9842673,63.957334 5.7694703,63.732182 5.6346793,63.623593 5.4480287,63.473226 5.2199951,63.381522 5.0790981,63.400166 4.9068239,63.422962 4.756978,63.500814 4.5505692,63.67476 l -0.099485,0.08384 -0.106316,0.0143 c -0.1392951,0.01874 -0.2097063,0.03221 -0.3365346,0.06439 -0.8254119,0.20943 -1.4499697,0.759797 -1.6639716,1.466311 -0.059133,0.195222 -0.079363,0.342454 -0.078876,0.574046 8.525e-4,0.405745 0.083428,0.863512 0.2602906,1.442956 l 0.057554,0.18856 -0.031734,0.1463 c -0.039036,0.179965 -0.062129,0.311127 -0.082841,0.470531 -0.012923,0.09945 -0.015909,0.157937 -0.016013,0.313599 -1.144e-4,0.172143 0.0015,0.198817 0.016091,0.265762 0.030194,0.138534 0.052569,0.180724 0.1860946,0.350885 0.2986367,0.380576 0.6437917,0.680143 1.0294235,0.893457 0.058395,0.0323 0.111882,0.06339 0.1188601,0.06908 0.00698,0.0057 0.055985,0.07057 0.1089049,0.144168 0.3281577,0.456407 0.6137294,0.730081 0.8410259,0.805986 0.072373,0.02417 0.1208985,0.01995 0.2235326,-0.01945 z M 5.3320454,68.06513 c -0.00657,-0.0035 -0.00679,-0.01 -9.039e-4,-0.02673 0.00436,-0.01241 0.00609,-0.04362 0.00394,-0.0712 -0.00378,-0.04857 -0.00341,-0.04965 0.033962,-0.09986 0.020778,-0.02791 0.046447,-0.07323 0.057043,-0.100691 l 0.019264,-0.04994 0.00204,-0.760079 c 0.00143,-0.5339 -2.679e-4,-0.772733 -0.00572,-0.802602 -0.010766,-0.05904 -0.039062,-0.118712 -0.080974,-0.170775 -0.02934,-0.03645 -0.034372,-0.04751 -0.028671,-0.06303 0.0038,-0.01035 0.00506,-0.04271 0.00279,-0.07191 l -0.00413,-0.05308 0.024343,0.006 c 0.060891,0.01506 0.1367352,0.101533 0.1755164,0.200121 0.044917,0.114185 0.044509,0.104905 0.042337,0.962126 l -0.00196,0.774467 -0.022219,0.07147 c -0.025274,0.0813 -0.074843,0.167562 -0.1188806,0.206888 -0.033963,0.03033 -0.084839,0.05571 -0.097783,0.04879 z M 5.0824685,67.171908 c 0.00641,-0.204751 0.0064,-0.271035 -5.58e-5,-0.478372 -0.00576,-0.184995 -0.00222,-0.195489 0.040317,-0.119758 0.091212,0.162376 0.1091812,0.419434 0.043191,0.617871 -0.018571,0.05585 -0.069356,0.147689 -0.081669,0.147689 -0.00464,0 -0.00524,-0.05689 -0.00178,-0.16743 z m 0.2198718,-0.885874 c 0,-0.04659 0.00241,-0.06345 0.00862,-0.06029 0.014063,0.0071 0.022486,0.06861 0.013514,0.09861 -0.01343,0.04491 -0.02213,0.02985 -0.02213,-0.03832 z"
         id="path68"
         inkscape:connector-curvature="0" />
      <path
         style="fill:#000000;stroke-width:0.00861171"
         d="m 1.3607203,67.190511 v -4.082105 h 3.5718751 3.5718751 v 4.082105 4.082105 H 4.9325954 1.3607203 Z m 3.6212039,3.759242 c 0.2290996,-0.08651 0.4661925,-0.273081 0.7257253,-0.571081 0.068135,-0.07823 0.08631,-0.09402 0.1151092,-0.09995 0.018809,-0.0039 0.086666,-0.02104 0.1507928,-0.03814 0.6067268,-0.161784 1.1252985,-0.505419 1.4043096,-0.930574 0.1074063,-0.163666 0.1723997,-0.359187 0.2069966,-0.622713 0.021887,-0.166713 0.022127,-0.507812 5.086e-4,-0.720895 -0.03837,-0.378189 -0.1087074,-0.740159 -0.2283296,-1.175032 -0.025657,-0.09327 -0.052732,-0.185562 -0.060166,-0.205083 -0.012732,-0.03343 -0.013051,-0.04392 -0.0055,-0.180719 0.009,-0.163007 0.00456,-0.363484 -0.011785,-0.532969 C 7.2222437,65.278135 7.0227429,64.829541 6.6711514,64.50448 6.5674702,64.40862 6.3234617,64.227359 6.2022864,64.15618 6.1466504,64.1235 6.0975383,64.09324 6.0931488,64.08893 6.0887588,64.08463 6.0510868,64.03886 6.0094328,63.987234 5.829748,63.764542 5.5957267,63.557454 5.4274607,63.47224 5.2109961,63.362618 5.0402311,63.360297 4.8314396,63.46414 c -0.08459,0.04207 -0.2750077,0.180871 -0.3442645,0.250943 l -0.044283,0.04481 -0.1022199,0.01364 c -0.7580542,0.101114 -1.4041421,0.481956 -1.7707334,1.043774 -0.1465798,0.22464 -0.2454634,0.483758 -0.2870008,0.752068 -0.024965,0.16126 -0.025812,0.430264 -0.00201,0.637829 0.040649,0.354442 0.1231497,0.725877 0.2559433,1.152304 0.02075,0.06663 0.037727,0.127458 0.037727,0.13517 0,0.0077 -0.015835,0.08628 -0.035188,0.174581 -0.039615,0.180754 -0.078503,0.417359 -0.090795,0.552421 -0.011959,0.1314 -0.010543,0.340772 0.00295,0.43585 0.023666,0.166795 0.065528,0.248811 0.2311696,0.452904 0.3086649,0.380318 0.6777753,0.689053 1.0604905,0.887028 l 0.080107,0.04144 0.092452,0.129018 c 0.3212352,0.448293 0.6109119,0.725432 0.83726,0.80102 0.072914,0.02435 0.1252287,0.01997 0.2288824,-0.01917 z"
         id="path66"
         inkscape:connector-curvature="0" />
    </g>
  </g>
</svg>
